<svg width="51" height="49" viewBox="0 0 51 49" fill="none" xmlns="http://www.w3.org/2000/svg">
<g id="Delete BUTTON">
<path id="Vector 4" d="M10 20.8367V23.8571V34.4286H12.2653V37.0714H14.5306V39.7143H17.1735V42.3571H19.8163V45H25.102H30.3878H36.4286V42.3571H39.0714V39.7143H41.7143V37.0714H44.3571V34.4286H47V29.1429V23.8571V18.5714H44.3571V15.9286H41.7143V13.2857H39.0714V10.6429H36.4286V8H31.1429H25.8571H20.5714V10.6429H17.9286V13.2857H15.2857V15.9286H12.6429V18.5714H10V19.3265V20.0816V20.4592V20.8367Z" fill="#0062F5" stroke="#0062F5" stroke-width="7"/>
<path id="Vector 12" d="M4 16.8367V19.8571V30.4286H6.26531V33.0714H8.53061V35.7143H11.1735V38.3571H13.8163V41H19.102H24.3878H30.4286V38.3571H33.0714V35.7143H35.7143V33.0714H38.3571V30.4286H41V25.1429V19.8571V14.5714H38.3571V11.9286H35.7143V9.28571H33.0714V6.64286H30.4286V4H25.1429H19.8571H14.5714V6.64286H11.9286V9.28571H9.28571V11.9286H6.64286V14.5714H4V15.3265V16.0816V16.4592V16.8367Z" fill="#B2CEFE" stroke="#B2CEFE" stroke-width="7"/>
<path id="Vector 13" d="M22.5 22.5H10.5H34.5" stroke="#6D8FCA" stroke-width="4"/>
</g>
</svg>
