<?xml version="1.0" encoding="UTF-8"?>
<svg id="Layer_1" data-name="Layer 1" xmlns="http://www.w3.org/2000/svg" viewBox="0 0 98.02 56.69">
  <defs>
    <style>
      .cls-1 {
        fill: #6e8fc9;
        stroke-width: 0px;
      }
    </style>
  </defs>
  <path class="cls-1" d="m88.65.27l-45.3,42.05c-1.01.93-.37,3.99,1.42,6.83l2.41,3.82c1.79,2.84,4.05,4.38,5.06,3.45L97.54,14.37c1.01-.93.37-3.99-1.42-6.83l-2.41-3.82c-1.79-2.84-4.05-4.38-5.06-3.45Z"/>
  <path class="cls-1" d="m7.92,4.78l49.72,36.71c1.1.82.82,3.92-.64,6.94l-1.97,4.07c-1.46,3.02-3.54,4.81-4.64,3.99L.67,19.78c-1.1-.82-.82-3.92.64-6.94l1.97-4.07c1.46-3.02,3.54-4.81,4.64-3.99Z"/>
</svg>