<svg width="32" height="32" viewBox="0 0 32 32" fill="none" xmlns="http://www.w3.org/2000/svg">
<g id="Global Streams Ic">
<path id="Vector 256" d="M9.11523 1H13.5175" stroke="#1B2330" stroke-width="2"/>
<path id="Vector 264" d="M23.1621 1H27.5643" stroke="#1B2330" stroke-width="2"/>
<path id="Vector 257" d="M13.5184 2.99561H15.7195" stroke="#1B2330" stroke-width="2"/>
<path id="Vector 265" d="M27.5647 2.99561H29.7658" stroke="#1B2330" stroke-width="2"/>
<path id="Vector 258" d="M16.8188 3.99335V7.98448" stroke="#1B2330" stroke-width="2"/>
<path id="Vector 266" d="M30.8656 3.99335V7.98448" stroke="#1B2330" stroke-width="2"/>
<path id="Vector 259" d="M15.7195 8.98227H13.5184" stroke="#1B2330" stroke-width="2"/>
<path id="Vector 267" d="M29.7658 8.98227H27.5647" stroke="#1B2330" stroke-width="2"/>
<path id="Vector 260" d="M13.5175 10.9778H9.11523" stroke="#1B2330" stroke-width="2"/>
<path id="Vector 268" d="M27.5643 10.9778H23.1621" stroke="#1B2330" stroke-width="2"/>
<path id="Vector 261" d="M6.91342 8.98227H9.11455" stroke="#1B2330" stroke-width="2"/>
<path id="Vector 323" d="M5.31422 19.8581H7.51535" stroke="#1B2330" stroke-width="2"/>
<path id="Vector 324" d="M3.15736 17.8127H5.35849" stroke="#1B2330" stroke-width="2"/>
<path id="Vector 325" d="M1 15.7672H3.20112" stroke="#1B2330" stroke-width="2"/>
<path id="Vector 326" d="M5.31422 22.5854H7.51535" stroke="#1B2330" stroke-width="2"/>
<path id="Vector 327" d="M3.15736 24.6309H5.35849" stroke="#1B2330" stroke-width="2"/>
<path id="Vector 328" d="M1 26.6763H3.20112" stroke="#1B2330" stroke-width="2"/>
<path id="Vector 269" d="M20.9603 8.98227H23.1614" stroke="#1B2330" stroke-width="2"/>
<path id="Vector 262" d="M5.81378 7.98448V3.99335" stroke="#1B2330" stroke-width="2"/>
<path id="Vector 270" d="M19.8606 7.98448V3.99335" stroke="#1B2330" stroke-width="2"/>
<path id="Vector 263" d="M6.91342 2.99561H9.11455" stroke="#1B2330" stroke-width="2"/>
<path id="Vector 271" d="M20.9603 2.99561H23.1614" stroke="#1B2330" stroke-width="2"/>
<path id="Vector 322" d="M31 13H8.24138V31H31V13Z" stroke="#1B2330" stroke-width="2"/>
<path id="Vector 329" d="M1.32832 15.7672V26.6763" stroke="#1B2330" stroke-width="2"/>
</g>
</svg>
