<?xml version="1.0" encoding="UTF-8"?>
<svg id="Layer_1" data-name="Layer 1" xmlns="http://www.w3.org/2000/svg" viewBox="0 0 99.37 99.37">
  <defs>
    <style>
      .cls-1 {
        fill: #94b2db;
      }
    </style>
  </defs>
  <rect class="cls-1" x="4.78" y="2.47" width="3.34" height="3.49"/>
  <rect class="cls-1" x="62.02" y="2.9" width="3.34" height="3.49"/>
  <rect class="cls-1" x="65.82" y="6.98" width="3.34" height="9.98"/>
  <rect class="cls-1" x="32.83" y="-26.16" width="3.49" height="55.8" transform="translate(36.32 -32.83) rotate(90)"/>
  <rect class="cls-1" x="0" y="6.98" width="3.34" height="85.51" transform="translate(3.34 99.47) rotate(180)"/>
  <rect class="cls-1" x="75.43" y="27.53" width="3.34" height="3.49"/>
  <rect class="cls-1" x="78.77" y="30.86" width="3.34" height="3.49"/>
  <rect class="cls-1" x="81.93" y="34.1" width="3.34" height="3.49"/>
  <rect class="cls-1" x="85.27" y="37.59" width="3.34" height="3.49"/>
  <rect class="cls-1" x="88.61" y="41.08" width="3.34" height="3.49"/>
  <rect class="cls-1" x="91.77" y="44.57" width="3.34" height="3.49"/>
  <rect class="cls-1" x="94.98" y="48.06" width="3.34" height="3.49"/>
  <rect class="cls-1" x="91.77" y="51.55" width="3.34" height="3.49"/>
  <rect class="cls-1" x="88.61" y="54.86" width="3.34" height="3.49"/>
  <rect class="cls-1" x="85.27" y="58.35" width="3.34" height="3.49"/>
  <rect class="cls-1" x="81.93" y="61.84" width="3.34" height="3.49"/>
  <rect class="cls-1" x="78.58" y="65.08" width="3.34" height="3.49"/>
  <rect class="cls-1" x="75.41" y="68.57" width="3.34" height="3.49"/>
  <rect class="cls-1" x="69.05" y="72.06" width="6.36" height="3.49"/>
  <rect class="cls-1" x="63.7" y="63.63" width="13.88" height="3.34" transform="translate(135.94 -5.35) rotate(90)"/>
  <rect class="cls-1" x="29.76" y="58.35" width="39.29" height="3.49"/>
  <rect class="cls-1" x="19.39" y="48.12" width="17.41" height="3.34" transform="translate(77.88 21.69) rotate(90)"/>
  <rect class="cls-1" x="29.76" y="37.59" width="42.47" height="3.49" transform="translate(101.99 78.67) rotate(180)"/>
  <rect class="cls-1" x="63.7" y="29.43" width="13.88" height="3.18" transform="translate(101.66 -39.62) rotate(90)"/>
  <rect class="cls-1" x="72.07" y="24.08" width="3.34" height="3.49"/>
  <rect class="cls-1" x="32.84" y="69.73" width="3.49" height="55.8" transform="translate(132.22 63.04) rotate(90)"/>
  <rect class="cls-1" x="1.86" y="91.77" width="3.34" height="3.49"/>
  <rect class="cls-1" x="64.05" y="91.51" width="3.34" height="3.49"/>
  <rect class="cls-1" x="62.05" y="85.7" width="10.67" height="3.34" transform="translate(154.75 19.98) rotate(90)"/>
  <rect class="cls-1" x="32.84" y="-23.69" width="3.49" height="55.8" transform="translate(38.8 -30.37) rotate(90)"/>
  <rect class="cls-1" x="2.89" y="7.03" width="3.34" height="85.51" transform="translate(9.12 99.57) rotate(180)"/>
  <rect class="cls-1" x="63" y="5.23" width="3.34" height="3.49"/>
  <rect class="cls-1" x="67.48" y="6.98" width="3.34" height="9.98"/>
  <rect class="cls-1" x=".65" y="5.84" width="3.34" height="3.49"/>
  <rect class="cls-1" x="4.56" y="93.52" width="3.34" height="3.49"/>
  <rect class="cls-1" x="33.38" y="67.36" width="3.49" height="55.8" transform="translate(130.39 60.14) rotate(90)"/>
  <rect class="cls-1" x="59.94" y="95" width="3.34" height="3.49"/>
  <rect class="cls-1" x="2.89" y="91.35" width="3.34" height="3.49"/>
  <rect class="cls-1" x="64.33" y="85.7" width="10.67" height="3.34" transform="translate(157.03 17.7) rotate(90)"/>
  <rect class="cls-1" x="29.76" y="40.23" width="42.47" height="3.49" transform="translate(101.99 83.95) rotate(180)"/>
  <rect class="cls-1" x="29.76" y="54.86" width="42.47" height="3.49"/>
  <rect class="cls-1" x="22.02" y="48.14" width="17.41" height="3.34" transform="translate(80.53 19.09) rotate(90)"/>
  <rect class="cls-1" x="73.76" y="25.79" width="3.34" height="3.49"/>
  <rect class="cls-1" x="77.34" y="29.44" width="3.34" height="3.49"/>
  <rect class="cls-1" x="80.44" y="32.6" width="3.34" height="3.49"/>
  <rect class="cls-1" x="83.48" y="36.09" width="3.34" height="3.49"/>
  <rect class="cls-1" x="86.82" y="39.58" width="3.34" height="3.49"/>
  <rect class="cls-1" x="90.28" y="42.83" width="3.34" height="3.49"/>
  <rect class="cls-1" x="93.31" y="46.42" width="3.34" height="3.49"/>
  <rect class="cls-1" x="93.31" y="49.32" width="3.34" height="3.49"/>
  <rect class="cls-1" x="90" y="53.3" width="3.34" height="3.49"/>
  <rect class="cls-1" x="86.67" y="56.61" width="3.34" height="3.49"/>
  <rect class="cls-1" x="96.04" y="48.74" width="3.34" height="1.9"/>
  <rect class="cls-1" x="83.33" y="59.96" width="3.34" height="3.49"/>
  <rect class="cls-1" x="79.8" y="63.33" width="3.34" height="3.49"/>
  <rect class="cls-1" x="76.83" y="66.82" width="3.34" height="3.49"/>
  <rect class="cls-1" x="73.49" y="70.65" width="3.34" height="3.49"/>
  <rect class="cls-1" x="73.49" y="29.05" width="3.34" height="3.49"/>
  <rect class="cls-1" x="76.82" y="32.38" width="3.34" height="3.49"/>
  <rect class="cls-1" x="79.99" y="35.62" width="3.34" height="3.49"/>
  <rect class="cls-1" x="83.32" y="39.11" width="3.34" height="3.49"/>
  <rect class="cls-1" x="86.66" y="42.6" width="3.34" height="3.49"/>
  <rect class="cls-1" x="89.82" y="46.09" width="3.34" height="3.49"/>
  <rect class="cls-1" x="93.03" y="49.58" width="3.34" height="3.49"/>
  <rect class="cls-1" x="70.13" y="25.6" width="3.34" height="3.49"/>
  <rect class="cls-1" x="71.82" y="27.31" width="3.34" height="3.49"/>
  <rect class="cls-1" x="75.39" y="30.96" width="3.34" height="3.49"/>
  <rect class="cls-1" x="78.49" y="34.12" width="3.34" height="3.49"/>
  <rect class="cls-1" x="81.53" y="37.61" width="3.34" height="3.49"/>
  <rect class="cls-1" x="84.87" y="41.1" width="3.34" height="3.49"/>
  <rect class="cls-1" x="88.33" y="44.35" width="3.34" height="3.49"/>
  <rect class="cls-1" x="91.36" y="47.94" width="3.34" height="3.49"/>
  <rect class="cls-1" x="94.09" y="50.26" width="3.34" height="1.9"/>
  <rect class="cls-1" x="72.07" y="67.52" width="3.34" height="3.49"/>
  <rect class="cls-1" x="75.82" y="64.19" width="3.34" height="3.49"/>
  <rect class="cls-1" x="78.98" y="60.95" width="3.34" height="3.49"/>
  <rect class="cls-1" x="82.32" y="57.46" width="3.34" height="3.49"/>
  <rect class="cls-1" x="85.66" y="53.97" width="3.34" height="3.49"/>
  <rect class="cls-1" x="88.82" y="50.48" width="3.34" height="3.49"/>
  <rect class="cls-1" x="92.03" y="46.99" width="3.34" height="3.49"/>
  <rect class="cls-1" x="69.12" y="70.97" width="3.34" height="3.49"/>
  <rect class="cls-1" x="70.81" y="69.26" width="3.34" height="3.49"/>
  <rect class="cls-1" x="74.39" y="65.61" width="3.34" height="3.49"/>
  <rect class="cls-1" x="77.49" y="62.45" width="3.34" height="3.49"/>
  <rect class="cls-1" x="80.53" y="58.96" width="3.34" height="3.49"/>
  <rect class="cls-1" x="83.87" y="55.47" width="3.34" height="3.49"/>
  <rect class="cls-1" x="87.33" y="52.23" width="3.34" height="3.49"/>
  <rect class="cls-1" x="90.36" y="48.63" width="3.34" height="3.49"/>
  <rect class="cls-1" x="93.09" y="47.9" width="3.34" height="1.9"/>
  <rect class="cls-1" x="31.42" y="-20.92" width="3.49" height="55.8" transform="translate(40.15 -26.19) rotate(90)"/>
  <rect class="cls-1" x="60.35" y="5.23" width="3.34" height="3.49"/>
  <rect class="cls-1" x="2.87" y="3.68" width="3.34" height="3.49"/>
  <rect class="cls-1" x="1.67" y="4.75" width="3.34" height="3.49"/>
  <rect class="cls-1" x="5.76" y=".97" width="3.34" height="3.49"/>
  <rect class="cls-1" x=".97" y="90.24" width="3.34" height="3.49"/>
  <rect class="cls-1" x="4.56" y="95.53" width="3.34" height="3.49"/>
  <rect class="cls-1" x="2.64" y="92.89" width="3.34" height="3.49"/>
  <rect class="cls-1" x="3.88" y="94.4" width="3.34" height="3.49"/>
  <rect class="cls-1" x="33.98" y="61.53" width="3.49" height="60.92" transform="translate(127.71 56.26) rotate(90)"/>
  <rect class="cls-1" x="5.76" y="7.43" width="3.34" height="85.51" transform="translate(14.86 100.37) rotate(180)"/>
  <rect class="cls-1" x="24.63" y="48.51" width="17.41" height="3.34" transform="translate(83.51 16.85) rotate(90)"/>
  <rect class="cls-1" x="29.76" y="42.85" width="42.47" height="3.49" transform="translate(101.99 89.19) rotate(180)"/>
  <rect class="cls-1" x="29.76" y="53.3" width="42.47" height="3.49" transform="translate(101.99 110.08) rotate(180)"/>
  <rect class="cls-1" x="60.03" y=".95" width="3.34" height="3.49"/>
  <rect class="cls-1" x="60.94" y="1.94" width="3.34" height="3.49"/>
  <rect class="cls-1" x="63.32" y="3.68" width="3.34" height="3.49"/>
  <rect class="cls-1" x="64.15" y="4.64" width="3.34" height="3.49"/>
  <rect class="cls-1" x="65.63" y="5.68" width="2.8" height="2.51"/>
  <rect class="cls-1" x="66.66" y="6.35" width="3.34" height="3.49"/>
  <rect class="cls-1" x="60.82" y="94.14" width="3.34" height="3.49"/>
  <rect class="cls-1" x="61.73" y="93.25" width="3.34" height="3.49"/>
  <rect class="cls-1" x="63.13" y="92.39" width="3.34" height="3.49"/>
  <rect class="cls-1" x="64.8" y="90.65" width="3.34" height="3.49"/>
  <rect class="cls-1" x="66.04" y="90.03" width="3.34" height="3.49"/>
</svg>