<?xml version="1.0" encoding="UTF-8"?>
<svg id="Layer_1" data-name="Layer 1" xmlns="http://www.w3.org/2000/svg" viewBox="0 0 83.93 92.98">
  <defs>
    <style>
      .cls-1 {
        fill: #94b2db;
      }
    </style>
  </defs>
  <rect class="cls-1" x="4.59" y="2.31" width="3.2" height="3.27"/>
  <rect class="cls-1" x="59.51" y="2.71" width="3.2" height="3.27"/>
  <rect class="cls-1" x="63.15" y="6.53" width="3.2" height="9.34"/>
  <rect class="cls-1" x="31.54" y="-25.14" width="3.27" height="53.55" transform="translate(34.81 -31.54) rotate(90)"/>
  <rect class="cls-1" x="0" y="6.53" width="3.2" height="80.01" transform="translate(3.2 93.07) rotate(180)"/>
  <rect class="cls-1" x="60.96" y="25.3" width="3.2" height="3.27"/>
  <rect class="cls-1" x="64.16" y="28.41" width="3.2" height="3.27"/>
  <rect class="cls-1" x="67.2" y="31.44" width="3.2" height="3.27"/>
  <rect class="cls-1" x="70.4" y="34.71" width="3.2" height="3.27"/>
  <rect class="cls-1" x="73.6" y="37.97" width="3.2" height="3.27"/>
  <rect class="cls-1" x="76.64" y="41.24" width="3.2" height="3.27"/>
  <rect class="cls-1" x="79.72" y="44.51" width="3.2" height="3.27"/>
  <rect class="cls-1" x="76.64" y="47.77" width="3.2" height="3.27"/>
  <rect class="cls-1" x="73.6" y="50.87" width="3.2" height="3.27"/>
  <rect class="cls-1" x="70.4" y="54.14" width="3.2" height="3.27"/>
  <rect class="cls-1" x="67.2" y="57.4" width="3.2" height="3.27"/>
  <rect class="cls-1" x="63.98" y="60.43" width="3.2" height="3.27"/>
  <rect class="cls-1" x="60.94" y="63.69" width="3.2" height="3.27"/>
  <rect class="cls-1" x="54.84" y="66.96" width="6.1" height="3.27"/>
  <rect class="cls-1" x="49.87" y="59.03" width="12.99" height="3.2" transform="translate(116.99 4.27) rotate(90)"/>
  <rect class="cls-1" x="17.14" y="54.14" width="37.7" height="3.27"/>
  <rect class="cls-1" x="7.39" y="44.52" width="16.29" height="3.2" transform="translate(61.66 30.58) rotate(90)"/>
  <rect class="cls-1" x="17.14" y="34.71" width="40.75" height="3.27" transform="translate(75.03 72.68) rotate(180)"/>
  <rect class="cls-1" x="49.87" y="27.04" width="12.99" height="3.05" transform="translate(84.92 -27.8) rotate(90)"/>
  <rect class="cls-1" x="57.74" y="22.07" width="3.2" height="3.27"/>
  <rect class="cls-1" x="31.55" y="64.58" width="3.27" height="53.55" transform="translate(124.54 58.17) rotate(90)"/>
  <rect class="cls-1" x="1.78" y="85.87" width="3.2" height="3.27"/>
  <rect class="cls-1" x="61.45" y="85.63" width="3.2" height="3.27"/>
  <rect class="cls-1" x="59.66" y="80.15" width="9.98" height="3.2" transform="translate(146.4 17.09) rotate(90)"/>
  <rect class="cls-1" x="31.55" y="-22.83" width="3.27" height="53.55" transform="translate(37.13 -29.24) rotate(90)"/>
  <rect class="cls-1" x="2.78" y="6.58" width="3.2" height="80.01" transform="translate(8.75 93.17) rotate(180)"/>
  <rect class="cls-1" x="60.45" y="4.9" width="3.2" height="3.27"/>
  <rect class="cls-1" x="64.75" y="6.53" width="3.2" height="9.34"/>
  <rect class="cls-1" x=".62" y="5.47" width="3.2" height="3.27"/>
  <rect class="cls-1" x="4.38" y="87.5" width="3.2" height="3.27"/>
  <rect class="cls-1" x="32.07" y="62.36" width="3.27" height="53.55" transform="translate(122.84 55.44) rotate(90)"/>
  <rect class="cls-1" x="57.51" y="88.89" width="3.2" height="3.27"/>
  <rect class="cls-1" x="2.78" y="85.47" width="3.2" height="3.27"/>
  <rect class="cls-1" x="61.86" y="80.15" width="9.98" height="3.2" transform="translate(148.6 14.9) rotate(90)"/>
  <rect class="cls-1" x="17.14" y="37.18" width="40.75" height="3.27" transform="translate(75.03 77.62) rotate(180)"/>
  <rect class="cls-1" x="17.14" y="50.87" width="40.75" height="3.27"/>
  <rect class="cls-1" x="9.91" y="44.54" width="16.29" height="3.2" transform="translate(64.2 28.08) rotate(90)"/>
  <rect class="cls-1" x="59.36" y="23.66" width="3.2" height="3.27"/>
  <rect class="cls-1" x="62.79" y="27.09" width="3.2" height="3.27"/>
  <rect class="cls-1" x="65.76" y="30.04" width="3.2" height="3.27"/>
  <rect class="cls-1" x="68.68" y="33.31" width="3.2" height="3.27"/>
  <rect class="cls-1" x="71.88" y="36.57" width="3.2" height="3.27"/>
  <rect class="cls-1" x="75.2" y="39.61" width="3.2" height="3.27"/>
  <rect class="cls-1" x="78.11" y="42.97" width="3.2" height="3.27"/>
  <rect class="cls-1" x="78.11" y="45.68" width="3.2" height="3.27"/>
  <rect class="cls-1" x="74.94" y="49.4" width="3.2" height="3.27"/>
  <rect class="cls-1" x="71.74" y="52.5" width="3.2" height="3.27"/>
  <rect class="cls-1" x="80.73" y="45.14" width="3.2" height="1.78"/>
  <rect class="cls-1" x="68.54" y="55.64" width="3.2" height="3.27"/>
  <rect class="cls-1" x="65.15" y="58.79" width="3.2" height="3.27"/>
  <rect class="cls-1" x="62.3" y="62.06" width="3.2" height="3.27"/>
  <rect class="cls-1" x="59.1" y="65.64" width="3.2" height="3.27"/>
  <rect class="cls-1" x="59.09" y="26.72" width="3.2" height="3.27"/>
  <rect class="cls-1" x="62.29" y="29.83" width="3.2" height="3.27"/>
  <rect class="cls-1" x="65.33" y="32.87" width="3.2" height="3.27"/>
  <rect class="cls-1" x="68.53" y="36.13" width="3.2" height="3.27"/>
  <rect class="cls-1" x="71.73" y="39.4" width="3.2" height="3.27"/>
  <rect class="cls-1" x="74.77" y="42.66" width="3.2" height="3.27"/>
  <rect class="cls-1" x="77.85" y="45.93" width="3.2" height="3.27"/>
  <rect class="cls-1" x="55.87" y="23.49" width="3.2" height="3.27"/>
  <rect class="cls-1" x="57.49" y="25.09" width="3.2" height="3.27"/>
  <rect class="cls-1" x="60.92" y="28.51" width="3.2" height="3.27"/>
  <rect class="cls-1" x="63.89" y="31.46" width="3.2" height="3.27"/>
  <rect class="cls-1" x="66.81" y="34.73" width="3.2" height="3.27"/>
  <rect class="cls-1" x="70.01" y="38" width="3.2" height="3.27"/>
  <rect class="cls-1" x="73.33" y="41.03" width="3.2" height="3.27"/>
  <rect class="cls-1" x="76.25" y="44.39" width="3.2" height="3.27"/>
  <rect class="cls-1" x="78.86" y="46.56" width="3.2" height="1.78"/>
  <rect class="cls-1" x="57.74" y="62.71" width="3.2" height="3.27"/>
  <rect class="cls-1" x="61.33" y="59.6" width="3.2" height="3.27"/>
  <rect class="cls-1" x="64.37" y="56.57" width="3.2" height="3.27"/>
  <rect class="cls-1" x="67.57" y="53.3" width="3.2" height="3.27"/>
  <rect class="cls-1" x="70.77" y="50.03" width="3.2" height="3.27"/>
  <rect class="cls-1" x="73.81" y="46.77" width="3.2" height="3.27"/>
  <rect class="cls-1" x="76.89" y="43.5" width="3.2" height="3.27"/>
  <rect class="cls-1" x="54.91" y="65.94" width="3.2" height="3.27"/>
  <rect class="cls-1" x="56.53" y="64.35" width="3.2" height="3.27"/>
  <rect class="cls-1" x="59.96" y="60.92" width="3.2" height="3.27"/>
  <rect class="cls-1" x="62.93" y="57.97" width="3.2" height="3.27"/>
  <rect class="cls-1" x="65.85" y="54.7" width="3.2" height="3.27"/>
  <rect class="cls-1" x="69.05" y="51.44" width="3.2" height="3.27"/>
  <rect class="cls-1" x="72.37" y="48.4" width="3.2" height="3.27"/>
  <rect class="cls-1" x="75.28" y="45.04" width="3.2" height="3.27"/>
  <rect class="cls-1" x="77.9" y="44.36" width="3.2" height="1.78"/>
  <rect class="cls-1" x="30.19" y="-20.24" width="3.27" height="53.55" transform="translate(38.36 -25.29) rotate(90)"/>
  <rect class="cls-1" x="57.91" y="4.9" width="3.2" height="3.27"/>
  <rect class="cls-1" x="2.76" y="3.44" width="3.2" height="3.27"/>
  <rect class="cls-1" x="1.6" y="4.44" width="3.2" height="3.27"/>
  <rect class="cls-1" x="5.53" y=".91" width="3.2" height="3.27"/>
  <rect class="cls-1" x=".93" y="84.44" width="3.2" height="3.27"/>
  <rect class="cls-1" x="4.38" y="89.39" width="3.2" height="3.27"/>
  <rect class="cls-1" x="2.53" y="86.92" width="3.2" height="3.27"/>
  <rect class="cls-1" x="3.73" y="88.33" width="3.2" height="3.27"/>
  <rect class="cls-1" x="32.65" y="56.85" width="3.27" height="58.45" transform="translate(120.35 51.79) rotate(90)"/>
  <rect class="cls-1" x="5.53" y="6.95" width="3.2" height="80.01" transform="translate(14.26 93.91) rotate(180)"/>
  <rect class="cls-1" x="12.42" y="44.89" width="16.29" height="3.2" transform="translate(67.05 25.93) rotate(90)"/>
  <rect class="cls-1" x="17.14" y="39.63" width="40.75" height="3.27" transform="translate(75.03 82.52) rotate(180)"/>
  <rect class="cls-1" x="17.14" y="49.4" width="40.75" height="3.27" transform="translate(75.03 102.07) rotate(180)"/>
  <rect class="cls-1" x="57.6" y=".89" width="3.2" height="3.27"/>
  <rect class="cls-1" x="58.47" y="1.81" width="3.2" height="3.27"/>
  <rect class="cls-1" x="60.76" y="3.44" width="3.2" height="3.27"/>
  <rect class="cls-1" x="61.55" y="4.34" width="3.2" height="3.27"/>
  <rect class="cls-1" x="62.97" y="5.32" width="2.68" height="2.35"/>
  <rect class="cls-1" x="63.96" y="5.94" width="3.2" height="3.27"/>
  <rect class="cls-1" x="58.36" y="88.09" width="3.2" height="3.27"/>
  <rect class="cls-1" x="59.23" y="87.26" width="3.2" height="3.27"/>
  <rect class="cls-1" x="60.58" y="86.45" width="3.2" height="3.27"/>
  <rect class="cls-1" x="62.18" y="84.82" width="3.2" height="3.27"/>
  <rect class="cls-1" x="63.36" y="84.24" width="3.2" height="3.27"/>
</svg>