<svg width="66" height="66" viewBox="0 0 66 66" fill="none" xmlns="http://www.w3.org/2000/svg">
<g id="LightBackground_Logo 1" clip-path="url(#clip0_12_1086)">
<path id="Vector" d="M0 47.4375L66 30.9375V57.75C66 62.3063 62.3063 66 57.75 66H8.25C3.69365 66 0 62.3063 0 57.75V47.4375Z" fill="#0062F5"/>
<path id="Vector_2" d="M0 8.25C0 3.69365 3.69365 0 8.25 0H57.75C62.3063 0 66 3.69365 66 8.25V28.875L0 45.375V8.25Z" fill="black"/>
<path id="Vector_3" fill-rule="evenodd" clip-rule="evenodd" d="M45.375 43.3125C47.8391 43.3125 50.0509 44.3928 51.5625 46.1055V43.3125H53.625V59.8125H51.5625V57.0195C50.0509 58.7322 47.8391 59.8125 45.375 59.8125C40.8187 59.8125 37.125 56.1188 37.125 51.5625C37.125 47.0062 40.8187 43.3125 45.375 43.3125ZM45.375 57.75C48.7924 57.75 51.5625 54.9799 51.5625 51.5625C51.5625 48.1451 48.7924 45.375 45.375 45.375C41.9576 45.375 39.1875 48.1451 39.1875 51.5625C39.1875 54.9799 41.9576 57.75 45.375 57.75Z" fill="white"/>
<path id="Vector_4" d="M59.8125 43.3125H57.75V59.8125H59.8125V43.3125Z" fill="white"/>
</g>
<defs>
<clipPath id="clip0_12_1086">
<rect width="66" height="66" fill="white"/>
</clipPath>
</defs>
</svg>
