<?xml version="1.0" encoding="UTF-8"?>
<svg id="Layer_1" data-name="Layer 1" xmlns="http://www.w3.org/2000/svg" viewBox="0 0 91.23 95.16">
  <defs>
    <style>
      .cls-1 {
        fill: #94b2db;
      }
    </style>
  </defs>
  <rect class="cls-1" x="4.19" y="3.34" width="3.06" height="3.34"/>
  <rect class="cls-1" x="55.84" y="3.34" width="3.06" height="3.34"/>
  <rect class="cls-1" x="60.42" y="6.68" width="3.06" height="9.56"/>
  <rect class="cls-1" x="30.07" y="-23.95" width="3.34" height="51.23" transform="translate(33.41 -30.07) rotate(90)"/>
  <rect class="cls-1" x="0" y="6.68" width="3.06" height="81.88" transform="translate(3.06 95.25) rotate(180)"/>
  <rect class="cls-1" x="69.25" y="26.37" width="3.06" height="3.34"/>
  <rect class="cls-1" x="72.32" y="29.55" width="3.06" height="3.34"/>
  <rect class="cls-1" x="75.22" y="32.66" width="3.06" height="3.34"/>
  <rect class="cls-1" x="78.28" y="36" width="3.06" height="3.34"/>
  <rect class="cls-1" x="81.35" y="39.34" width="3.06" height="3.34"/>
  <rect class="cls-1" x="84.25" y="42.68" width="3.06" height="3.34"/>
  <rect class="cls-1" x="87.2" y="46.02" width="3.06" height="3.34"/>
  <rect class="cls-1" x="84.25" y="49.37" width="3.06" height="3.34"/>
  <rect class="cls-1" x="81.35" y="52.54" width="3.06" height="3.34"/>
  <rect class="cls-1" x="78.28" y="55.88" width="3.06" height="3.34"/>
  <rect class="cls-1" x="75.22" y="59.22" width="3.06" height="3.34"/>
  <rect class="cls-1" x="72.14" y="62.32" width="3.06" height="3.34"/>
  <rect class="cls-1" x="69.23" y="65.66" width="3.06" height="3.34"/>
  <rect class="cls-1" x="63.39" y="69" width="5.84" height="3.34"/>
  <rect class="cls-1" x="58.28" y="60.99" width="13.29" height="3.06" transform="translate(127.45 -2.4) rotate(90)"/>
  <rect class="cls-1" x="27.33" y="55.88" width="36.07" height="3.34"/>
  <rect class="cls-1" x="17.46" y="46.14" width="16.67" height="3.06" transform="translate(73.47 21.88) rotate(90)"/>
  <rect class="cls-1" x="27.33" y="36" width="38.99" height="3.34" transform="translate(93.64 75.34) rotate(180)"/>
  <rect class="cls-1" x="58.21" y="28.25" width="13.29" height="2.92" transform="translate(94.56 -35.15) rotate(90)"/>
  <rect class="cls-1" x="66.17" y="23.06" width="3.06" height="3.34"/>
  <rect class="cls-1" x="30.08" y="67.88" width="3.34" height="51.23" transform="translate(125.24 61.74) rotate(90)"/>
  <rect class="cls-1" x="2.66" y="87.71" width="3.06" height="3.34"/>
  <rect class="cls-1" x="58.8" y="87.63" width="3.06" height="3.34"/>
  <rect class="cls-1" x="56.75" y="82.13" width="10.22" height="3.06" transform="translate(145.52 21.8) rotate(90)"/>
  <rect class="cls-1" x="30.08" y="-21.58" width="3.34" height="51.23" transform="translate(35.79 -27.72) rotate(90)"/>
  <rect class="cls-1" x="2.66" y="6.73" width="3.06" height="81.88" transform="translate(8.37 95.35) rotate(180)"/>
  <rect class="cls-1" x="57.84" y="5.01" width="3.06" height="3.34"/>
  <rect class="cls-1" x="61.96" y="6.68" width="3.06" height="9.56"/>
  <rect class="cls-1" x="2.89" y="5.71" width="3.06" height="3.34"/>
  <rect class="cls-1" x="4.19" y="89.55" width="3.06" height="3.34"/>
  <rect class="cls-1" x="30.57" y="65.61" width="3.34" height="51.23" transform="translate(123.47 58.98) rotate(90)"/>
  <rect class="cls-1" x="56.33" y="89.55" width="3.06" height="3.34"/>
  <rect class="cls-1" x="4.19" y="87.88" width="3.06" height="3.34"/>
  <rect class="cls-1" x="58.85" y="82.13" width="10.22" height="3.06" transform="translate(147.62 19.7) rotate(90)"/>
  <rect class="cls-1" x="27.33" y="38.52" width="38.99" height="3.34" transform="translate(93.64 80.39) rotate(180)"/>
  <rect class="cls-1" x="27.33" y="52.54" width="38.99" height="3.34"/>
  <rect class="cls-1" x="19.87" y="46.16" width="16.67" height="3.06" transform="translate(75.9 19.49) rotate(90)"/>
  <rect class="cls-1" x="67.72" y="24.69" width="3.06" height="3.34"/>
  <rect class="cls-1" x="71" y="28.2" width="3.06" height="3.34"/>
  <rect class="cls-1" x="73.85" y="31.22" width="3.06" height="3.34"/>
  <rect class="cls-1" x="76.64" y="34.56" width="3.06" height="3.34"/>
  <rect class="cls-1" x="79.7" y="37.91" width="3.06" height="3.34"/>
  <rect class="cls-1" x="82.88" y="41.01" width="3.06" height="3.34"/>
  <rect class="cls-1" x="85.67" y="44.45" width="3.06" height="3.34"/>
  <rect class="cls-1" x="85.67" y="47.23" width="3.06" height="3.34"/>
  <rect class="cls-1" x="82.63" y="51.04" width="3.06" height="3.34"/>
  <rect class="cls-1" x="79.56" y="54.21" width="3.06" height="3.34"/>
  <rect class="cls-1" x="88.17" y="46.67" width="3.06" height="1.82"/>
  <rect class="cls-1" x="76.5" y="57.42" width="3.06" height="3.34"/>
  <rect class="cls-1" x="73.27" y="60.65" width="3.06" height="3.34"/>
  <rect class="cls-1" x="70.53" y="63.99" width="3.06" height="3.34"/>
  <rect class="cls-1" x="67.47" y="67.66" width="3.06" height="3.34"/>
</svg>