<svg width="32" height="32" viewBox="0 0 32 32" fill="none" xmlns="http://www.w3.org/2000/svg">
<g id="Models Icon">
<path id="Vector 256" d="M2.60107 7.97423H4.73632" stroke="#1B2330" stroke-width="2"/>
<path id="Vector 264" d="M2.60107 20.6546H4.73632" stroke="#1B2330" stroke-width="2"/>
<path id="Vector 272" d="M14.5586 9.87628H16.6938" stroke="#1B2330" stroke-width="2"/>
<path id="Vector 280" d="M14.5586 18.1186H16.6938" stroke="#1B2330" stroke-width="2"/>
<path id="Vector 288" d="M14.5586 26.3608H16.6938" stroke="#1B2330" stroke-width="2"/>
<path id="Vector 296" d="M14.5586 1H16.6939" stroke="#1B2330" stroke-width="2"/>
<path id="Vector 304" d="M27.2632 13.6804H29.3984" stroke="#1B2330" stroke-width="2"/>
<path id="Vector 257" d="M4.73682 8.90208H5.80444" stroke="#1B2330" stroke-width="2"/>
<path id="Vector 265" d="M4.73682 21.5825H5.80444" stroke="#1B2330" stroke-width="2"/>
<path id="Vector 273" d="M16.6938 10.8041H17.7615" stroke="#1B2330" stroke-width="2"/>
<path id="Vector 281" d="M16.6938 19.0464H17.7615" stroke="#1B2330" stroke-width="2"/>
<path id="Vector 289" d="M16.6938 27.2887H17.7615" stroke="#1B2330" stroke-width="2"/>
<path id="Vector 297" d="M16.6938 1.92786H17.7615" stroke="#1B2330" stroke-width="2"/>
<path id="Vector 305" d="M29.3989 14.6083H30.4665" stroke="#1B2330" stroke-width="2"/>
<path id="Vector 258" d="M6.33789 9.36598V11.2217" stroke="#1B2330" stroke-width="2"/>
<path id="Vector 266" d="M6.33789 22.0464V23.9021" stroke="#1B2330" stroke-width="2"/>
<path id="Vector 274" d="M18.2954 11.2681V13.1237" stroke="#1B2330" stroke-width="2"/>
<path id="Vector 282" d="M18.2954 19.5103V21.366" stroke="#1B2330" stroke-width="2"/>
<path id="Vector 290" d="M18.2954 27.7526V29.6082" stroke="#1B2330" stroke-width="2"/>
<path id="Vector 298" d="M18.2954 2.39175V4.24742" stroke="#1B2330" stroke-width="2"/>
<path id="Vector 306" d="M31 15.0722V16.9278" stroke="#1B2330" stroke-width="2"/>
<path id="Vector 259" d="M5.80444 11.6856H4.73682" stroke="#1B2330" stroke-width="2"/>
<path id="Vector 267" d="M5.80444 24.366H4.73682" stroke="#1B2330" stroke-width="2"/>
<path id="Vector 275" d="M17.7615 13.5876H16.6938" stroke="#1B2330" stroke-width="2"/>
<path id="Vector 283" d="M17.7615 21.8299H16.6938" stroke="#1B2330" stroke-width="2"/>
<path id="Vector 291" d="M17.7615 30.0722H16.6938" stroke="#1B2330" stroke-width="2"/>
<path id="Vector 299" d="M17.7615 4.71135H16.6938" stroke="#1B2330" stroke-width="2"/>
<path id="Vector 307" d="M30.4665 17.3918H29.3989" stroke="#1B2330" stroke-width="2"/>
<path id="Vector 260" d="M4.73632 12.6134H2.60107" stroke="#1B2330" stroke-width="2"/>
<path id="Vector 268" d="M4.73632 25.2938H2.60107" stroke="#1B2330" stroke-width="2"/>
<path id="Vector 276" d="M16.6938 14.5155H14.5586" stroke="#1B2330" stroke-width="2"/>
<path id="Vector 284" d="M16.6938 22.7577H14.5586" stroke="#1B2330" stroke-width="2"/>
<path id="Vector 292" d="M16.6938 31H14.5586" stroke="#1B2330" stroke-width="2"/>
<path id="Vector 300" d="M16.6938 5.63918H14.5586" stroke="#1B2330" stroke-width="2"/>
<path id="Vector 308" d="M29.3984 18.3196H27.2632" stroke="#1B2330" stroke-width="2"/>
<path id="Vector 261" d="M1.53369 11.6856H2.60131" stroke="#1B2330" stroke-width="2"/>
<path id="Vector 269" d="M1.53369 24.366H2.60131" stroke="#1B2330" stroke-width="2"/>
<path id="Vector 277" d="M13.4907 13.5876H14.5583" stroke="#1B2330" stroke-width="2"/>
<path id="Vector 285" d="M13.4907 21.8299H14.5583" stroke="#1B2330" stroke-width="2"/>
<path id="Vector 293" d="M13.4907 30.0722H14.5583" stroke="#1B2330" stroke-width="2"/>
<path id="Vector 301" d="M13.4907 4.71135H14.5583" stroke="#1B2330" stroke-width="2"/>
<path id="Vector 309" d="M26.1958 17.3918H27.2634" stroke="#1B2330" stroke-width="2"/>
<path id="Vector 262" d="M1 11.2217V9.36598" stroke="#1B2330" stroke-width="2"/>
<path id="Vector 270" d="M1 23.9021V22.0464" stroke="#1B2330" stroke-width="2"/>
<path id="Vector 278" d="M12.9575 13.1237V11.2681" stroke="#1B2330" stroke-width="2"/>
<path id="Vector 286" d="M12.9575 21.366V19.5103" stroke="#1B2330" stroke-width="2"/>
<path id="Vector 294" d="M12.9575 29.6082V27.7526" stroke="#1B2330" stroke-width="2"/>
<path id="Vector 302" d="M12.9575 4.24742V2.39175" stroke="#1B2330" stroke-width="2"/>
<path id="Vector 310" d="M25.6621 16.9278V15.0722" stroke="#1B2330" stroke-width="2"/>
<path id="Vector 263" d="M1.53369 8.90208H2.60131" stroke="#1B2330" stroke-width="2"/>
<path id="Vector 271" d="M1.53369 21.5825H2.60131" stroke="#1B2330" stroke-width="2"/>
<path id="Vector 279" d="M13.4907 10.8041H14.5583" stroke="#1B2330" stroke-width="2"/>
<path id="Vector 287" d="M13.4907 19.0464H14.5583" stroke="#1B2330" stroke-width="2"/>
<path id="Vector 295" d="M13.4907 27.2887H14.5583" stroke="#1B2330" stroke-width="2"/>
<path id="Vector 303" d="M13.4907 1.92786H14.5583" stroke="#1B2330" stroke-width="2"/>
<path id="Vector 311" d="M26.1958 14.6083H27.2634" stroke="#1B2330" stroke-width="2"/>
<path id="Vector 312" d="M5.11035 8.92525L14.0784 4.48711" stroke="#1B2330" stroke-width="1.5"/>
<path id="Vector 313" d="M6.23145 10.5103L12.9575 12.0954" stroke="#1B2330" stroke-width="1.5"/>
<path id="Vector 314" d="M5.11035 11.7784L12.9574 20.3376" stroke="#1B2330" stroke-width="1.5"/>
<path id="Vector 315" d="M5.11035 21.6057L12.5837 12.4124" stroke="#1B2330" stroke-width="1.5"/>
<path id="Vector 316" d="M6.23145 22.8737L12.9575 20.3376" stroke="#1B2330" stroke-width="1.5"/>
<path id="Vector 317" d="M5.5 24.5L12.9575 28.8969" stroke="#1B2330" stroke-width="1.5"/>
<path id="Vector 318" d="M18.5625 3.53609L26.7832 14.6314" stroke="#1B2330" stroke-width="1.5"/>
<path id="Vector 319" d="M18.189 12.0954L25.6623 15.5825" stroke="#1B2330" stroke-width="1.5"/>
<path id="Vector 320" d="M18.189 20.3376L25.6623 16.2165" stroke="#1B2330" stroke-width="1.5"/>
<path id="Vector 321" d="M18.189 28.5799L26.7833 17.4845" stroke="#1B2330" stroke-width="1.5"/>
</g>
</svg>
