<svg width="37" height="40" viewBox="0 0 37 40" fill="none" xmlns="http://www.w3.org/2000/svg">
<g id="Star TILE">
<path id="Vector 5" d="M18.0969 4.72076C18.0969 6.82331 18.0969 8.77005 18.0969 10.5711M18.0969 10.5711H14.0709M18.0969 10.5711H22.123M18.0969 10.5711V13.3243M18.0969 10.5711C18.0969 11.5296 18.0969 12.4468 18.0969 13.3243M18.0969 13.3243H14.0709M18.0969 13.3243H22.123M18.0969 13.3243C18.0969 14.1631 18.0969 14.9657 18.0969 15.7333M18.0969 13.3243V15.7333M18.0969 15.7333H12.2408H24.319H18.0969ZM18.0969 15.7333V17.7981M18.0969 15.7333C18.0969 16.4518 18.0969 17.1397 18.0969 17.7981M18.0969 17.7981H1.62671M18.0969 17.7981H34.5671M18.0969 17.7981C18.0969 18.5215 18.0969 19.2093 18.0969 19.8629M18.0969 17.7981V19.8629M18.0969 19.8629H32.3711M18.0969 19.8629H3.82274M18.0969 19.8629V22.2719M18.0969 19.8629C18.0969 20.7242 18.0969 21.5261 18.0969 22.2719M18.0969 22.2719H28.3451M18.0969 22.2719H7.84879M18.0969 22.2719C18.0969 23.1509 18.0969 23.9521 18.0969 24.6809M18.0969 22.2719V24.6809M18.0969 24.6809H10.4108H26.149H18.0969ZM18.0969 24.6809V27.2464M18.0969 24.6809C18.0969 25.663 18.0969 26.5137 18.0969 27.2464M18.0969 27.2464H10.4108M18.0969 27.2464H25.783M18.0969 27.2464V29.233M18.0969 27.2464C18.0969 28.3047 18.0969 29.1167 18.0969 29.7227M18.0969 29.233H10.4108H26.515H18.0969ZM18.0969 29.233V29.7227M18.0969 29.7227V31.2196C18.0969 31.1588 18.0969 30.7196 18.0969 29.7227ZM18.0969 29.7227H13.7049M8.21479 29.7227H13.7049M20.659 29.7227H27.9791V35.0051H30.5411H25.051V31.9078H20.659V29.7227ZM20.659 29.7227H13.7049M13.7049 29.7227V31.6756M13.7049 33.6285V31.6756M13.7049 31.6756H8.21479V34.661H6.01877H11.5088V32.9403H9.67881" stroke="#FFA800" stroke-width="4"/>
<path id="Vector" d="M17.2238 3H19.3767M2.15297 15.2907H12.9178M25.8356 27.5815H27.9886M25.8356 25.1233H27.9886M8.61188 27.5815H10.7648M8.61188 25.1233H10.7648M27.9886 32.4977H30.1416M25.8356 37.414H30.1416M30.1416 34.9559H32.2945M27.9886 30.0396H30.1416M6.45891 32.4977H8.61188M10.7648 37.414H6.45891M19.3767 32.4977H21.5297M15.0708 32.4977H17.2238M17.2238 30.0396H19.3767M15.0708 34.9559H10.7648M21.5297 34.9559H25.8356M4.30594 34.9559H6.45891M6.45891 30.0396H8.61188M27.9886 22.6652H32.2945M4.30594 22.6652H8.61188M34.4475 17.7489H36.6005M2.15297 20.207H4.30594M32.2945 20.207H34.4475M0 17.7489H2.15297M23.6827 15.2907H34.4475M21.5297 10.3744H23.6827M21.5297 12.8326H23.6827M12.9178 10.3744H15.0708M12.9178 12.8326H15.0708M15.0708 7.91629H17.2238M15.0708 5.45815H17.2238M19.3767 5.45815H21.5297M19.3767 7.91629H21.5297" stroke="#6E6E6E" stroke-width="5"/>
</g>
</svg>
