<svg width="32" height="32" viewBox="0 0 32 32" fill="none" xmlns="http://www.w3.org/2000/svg">
<g id="Tenants Icon">
<path id="Vector 280" d="M19.5713 1V30.2683" stroke="#1B2330" stroke-width="1.5"/>
<path id="Vector 281" d="M19.5713 1L30.2856 3.19512V6.12195V30.2683" stroke="#1B2330" stroke-width="1.5"/>
<path id="Vector 278" d="M17.4282 2.46342H18.8568" stroke="#1B2330" stroke-width="1.5"/>
<path id="Vector 279" d="M18.8574 1H19.5717H20.286" stroke="#1B2330" stroke-width="1.5"/>
<path id="Vector 256" d="M6 14.1707H8.85714" stroke="#1B2330" stroke-width="1.5"/>
<path id="Vector 257" d="M8.85742 15.6342H10.286" stroke="#1B2330" stroke-width="1.5"/>
<path id="Vector 258" d="M11 16.3658V19.2927" stroke="#1B2330" stroke-width="1.5"/>
<path id="Vector 259" d="M10.286 20.0244H8.85742" stroke="#1B2330" stroke-width="1.5"/>
<path id="Vector 260" d="M8.85714 21.4878H6" stroke="#1B2330" stroke-width="1.5"/>
<path id="Vector 261" d="M4.57129 20.0244H5.99986" stroke="#1B2330" stroke-width="1.5"/>
<path id="Vector 262" d="M3.85742 19.2927V16.3658" stroke="#1B2330" stroke-width="1.5"/>
<path id="Vector 263" d="M4.57129 15.6342H5.99986" stroke="#1B2330" stroke-width="1.5"/>
<path id="Vector 264" d="M4.57129 22.9512H10.2856" stroke="#1B2330" stroke-width="1.5"/>
<path id="Vector 265" d="M3.14307 24.4147H4.57164" stroke="#1B2330" stroke-width="1.5"/>
<path id="Vector 266" d="M10.2856 24.4147H11.7142" stroke="#1B2330" stroke-width="1.5"/>
<path id="Vector 267" d="M1.71387 25.8781H3.14244" stroke="#1B2330" stroke-width="1.5"/>
<path id="Vector 268" d="M11.7148 25.8781H13.1434" stroke="#1B2330" stroke-width="1.5"/>
<path id="Vector 269" d="M1 26.6097V31" stroke="#1B2330" stroke-width="1.5"/>
<path id="Vector 270" d="M13.8569 26.6097V31" stroke="#1B2330" stroke-width="1.5"/>
<path id="Vector 271" d="M1 30.2683H31" stroke="#1B2330" stroke-width="1.5"/>
<path id="Vector 272" d="M8.85742 11.2439H10.286" stroke="#1B2330" stroke-width="1.5"/>
<path id="Vector 273" d="M10.2856 9.78046H11.7142" stroke="#1B2330" stroke-width="1.5"/>
<path id="Vector 274" d="M11.7148 8.31708H13.1434" stroke="#1B2330" stroke-width="1.5"/>
<path id="Vector 275" d="M13.1426 6.85365H14.5711" stroke="#1B2330" stroke-width="1.5"/>
<path id="Vector 276" d="M14.5718 5.39027H16.0003" stroke="#1B2330" stroke-width="1.5"/>
<path id="Vector 277" d="M16 3.9268H16.7143H17.4286" stroke="#1B2330" stroke-width="1.5"/>
</g>
</svg>
